Coordinates
version=1
nRows=4
nColumns=63
inDegrees=yes

Units are S.I. units (second, meters, Newtons, ...)
If the header above contains a line with 'inDegrees', this indicates whether rotational values are in degrees (yes) or radians (no).

endheader
time	pelvis_tilt	pelvis_list	pelvis_rotation	pelvis_tx	pelvis_ty	pelvis_tz	hip_flexion_r	hip_adduction_r	hip_rotation_r	knee_angle_r	knee_angle_r_beta	ankle_angle_r	subtalar_angle_r	mtp_angle_r	hip_flexion_l	hip_adduction_l	hip_rotation_l	knee_angle_l	knee_angle_l_beta	ankle_angle_l	subtalar_angle_l	mtp_angle_l	L5_S1_Flex_Ext	L5_S1_Lat_Bending	L5_S1_axial_rotation	L4_L5_Flex_Ext	L4_L5_Lat_Bending	L4_L5_axial_rotation	L3_L4_Flex_Ext	L3_L4_Lat_Bending	L3_L4_axial_rotation	L2_L3_Flex_Ext	L2_L3_Lat_Bending	L2_L3_axial_rotation	L1_L2_Flex_Ext	L1_L2_Lat_Bending	L1_L2_axial_rotation	L1_T12_Flex_Ext	L1_T12_Lat_Bending	L1_T12_axial_rotation	Abs_r3	Abs_r2	Abs_r1	Abs_t1	Abs_t2	neck_flexion	neck_bending	neck_rotation	arm_flex_r	arm_add_r	arm_rot_r	elbow_flex_r	pro_sup_r	wrist_flex_r	wrist_dev_r	arm_flex_l	arm_add_l	arm_rot_l	elbow_flex_l	pro_sup_l	wrist_flex_l	wrist_dev_l
      3.94200000	    -40.69522293	      0.90499665	      0.44007188	     -0.16011737	      1.02796877	      0.03185603	    106.18633420	     -3.52145058	      3.33381535	     85.13310442	      1.48585297	     15.39904403	    -15.38195592	      0.00000000	     84.01095839	     -5.99068450	      0.19951255	     84.04022140	      1.46677857	     -2.10902568	    -10.47225106	      0.00000000	     -0.06853089	      0.14719349	     -0.32759258	     -0.12726872	      0.19576734	     -0.34806711	     -0.11258941	      0.35788624	     -0.34806711	     -0.07832396	      0.35788624	     -0.28664351	     -0.06363779	      0.30015696	     -0.26616897	     -0.03915855	      0.22800271	     -0.24569443	     -0.48950933	      1.66508215	     -1.82197164	      0.00000000	      0.00000000	     -0.00000000	      0.00000000	      0.00000000	     66.27253572	    -13.55060662	     26.20902954	     46.27330776	     63.58960365	      0.00000000	      5.00000143	     64.63198265	    -20.85495254	     23.65293935	     48.92551403	     62.85172986	      0.00000000	      5.00000143
      3.95000000	    -40.75935395	      0.90740232	      0.75750597	     -0.16014205	      1.02841387	      0.03160193	    104.67219030	     -3.87326456	      3.20072420	     82.35684601	      1.43739812	     15.01784354	    -15.26066355	      0.00000000	     85.08907783	     -5.81886111	      0.36926358	     86.50906626	      1.50986804	     -1.59430072	    -10.57980152	      0.00000000	     -0.06911669	      0.13856030	     -0.38413976	     -0.12835661	      0.18428519	     -0.40814850	     -0.11355182	      0.33689551	     -0.40814850	     -0.07899347	      0.33689551	     -0.33612229	     -0.06418176	      0.28255216	     -0.31211356	     -0.03949328	      0.21462990	     -0.28810482	     -0.49369363	      1.56742179	     -2.13647013	      0.00000000	      0.00000000	     -0.00000000	      0.00000000	      0.00000000	     66.21480074	    -13.44215357	     25.91965280	     46.19980070	     63.47463960	      0.00000000	      5.00000139	     64.64375339	    -20.77145108	     23.52122147	     49.06715942	     62.75643402	      0.00000000	      5.00000139
      3.95800000	    -40.82383588	      0.87579414	      1.08428356	     -0.16010860	      1.02885534	      0.03142488	    103.06572336	     -4.18619032	      3.13083079	     79.54945023	      1.38839982	     14.55669711	    -15.07827219	      0.00000000	     86.19229167	     -5.64695674	      0.57454927	     88.93681410	      1.55224023	     -1.03210329	    -10.74374069	      0.00000000	     -0.06858089	      0.13276233	     -0.44666021	     -0.12736157	      0.17657390	     -0.47457647	     -0.11267154	      0.32279833	     -0.47457647	     -0.07838110	      0.32279833	     -0.39082768	     -0.06368421	      0.27072894	     -0.36291142	     -0.03918712	      0.20564885	     -0.33499516	     -0.48986643	      1.50183402	     -2.48419008	      0.00000000	      0.00000000	     -0.00000000	      0.00000000	      0.00000000	     66.17237911	    -13.33992115	     25.67144453	     46.10556622	     63.36320515	      0.00000000	      5.00000136	     64.64071386	    -20.75643565	     23.44137620	     49.22915559	     62.66441715	      0.00000000	      5.00000136
      3.96700000	    -40.88673041	      0.75423706	      1.36509769	     -0.16011595	      1.02925200	      0.03125204	    101.39287333	     -4.54374817	      2.79203267	     76.71777772	      1.33897782	     14.00768146	    -14.93947605	      0.00000000	     87.37067368	     -5.54329706	      0.81333940	     91.37455016	      1.59478675	     -0.35107198	    -10.95346389	      0.00000000	     -0.07012211	      0.13829772	     -0.49704607	     -0.13022378	      0.18393597	     -0.52811145	     -0.11520362	      0.33625708	     -0.52811145	     -0.08014256	      0.33625708	     -0.43491532	     -0.06511539	      0.28201671	     -0.40384994	     -0.04006778	      0.21422317	     -0.37278456	     -0.50087524	      1.56445148	     -2.76442115	      0.00000000	      0.00000000	     -0.00000000	      0.00000000	      0.00000000	     66.17240484	    -13.22740083	     25.42720490	     45.95944750	     63.26849076	      0.00000000	      5.00000132	     64.62927263	    -20.68236458	     23.38756189	     49.46338797	     62.58707731	      0.00000000	      5.00000132
